<mxfile host="app.diagrams.net" modified="2021-06-03T08:50:00.627Z" agent="5.0 (Macintosh; Intel Mac OS X 10_15_7) AppleWebKit/605.1.15 (KHTML, like Gecko) Version/14.1.1 Safari/605.1.15" etag="QeFuiVL9lmeyEw2KKJJN" version="14.7.3" type="github">
  <diagram name="Page-1" id="0783ab3e-0a74-02c8-0abd-f7b4e66b4bec">
    <mxGraphModel dx="946" dy="645" grid="1" gridSize="10" guides="1" tooltips="1" connect="1" arrows="1" fold="1" page="1" pageScale="1" pageWidth="850" pageHeight="1100" background="none" math="0" shadow="0">
      <root>
        <mxCell id="0" />
        <mxCell id="1" parent="0" />
        <mxCell id="ZVZxzonYXC_XQn4FU5jw-2" style="edgeStyle=orthogonalEdgeStyle;rounded=0;orthogonalLoop=1;jettySize=auto;html=1;exitX=0.5;exitY=1;exitDx=0;exitDy=0;entryX=0.5;entryY=0;entryDx=0;entryDy=0;strokeColor=#000000;" edge="1" parent="1" source="60571a20871a0731-4" target="ZVZxzonYXC_XQn4FU5jw-1">
          <mxGeometry relative="1" as="geometry" />
        </mxCell>
        <mxCell id="60571a20871a0731-4" value="" style="ellipse;whiteSpace=wrap;html=1;rounded=0;shadow=0;comic=0;labelBackgroundColor=none;strokeWidth=1;fillColor=#000000;fontFamily=Verdana;fontSize=12;align=center;" parent="1" vertex="1">
          <mxGeometry x="340" y="30" width="40" height="40" as="geometry" />
        </mxCell>
        <mxCell id="ZVZxzonYXC_XQn4FU5jw-3" style="edgeStyle=orthogonalEdgeStyle;rounded=0;orthogonalLoop=1;jettySize=auto;html=1;exitX=0.5;exitY=1;exitDx=0;exitDy=0;strokeColor=#000000;entryX=0.5;entryY=0;entryDx=0;entryDy=0;" edge="1" parent="1" source="ZVZxzonYXC_XQn4FU5jw-1" target="ZVZxzonYXC_XQn4FU5jw-4">
          <mxGeometry relative="1" as="geometry">
            <mxPoint x="360" y="240" as="targetPoint" />
          </mxGeometry>
        </mxCell>
        <mxCell id="ZVZxzonYXC_XQn4FU5jw-1" value="Kitapları&lt;br&gt;Görüntüle" style="rounded=1;whiteSpace=wrap;html=1;" vertex="1" parent="1">
          <mxGeometry x="300" y="120" width="120" height="60" as="geometry" />
        </mxCell>
        <mxCell id="ZVZxzonYXC_XQn4FU5jw-8" style="edgeStyle=orthogonalEdgeStyle;rounded=0;orthogonalLoop=1;jettySize=auto;html=1;entryX=0.5;entryY=0;entryDx=0;entryDy=0;strokeColor=#000000;" edge="1" parent="1" source="ZVZxzonYXC_XQn4FU5jw-4" target="ZVZxzonYXC_XQn4FU5jw-7">
          <mxGeometry relative="1" as="geometry" />
        </mxCell>
        <mxCell id="ZVZxzonYXC_XQn4FU5jw-9" value="Evet" style="edgeLabel;html=1;align=center;verticalAlign=middle;resizable=0;points=[];" vertex="1" connectable="0" parent="ZVZxzonYXC_XQn4FU5jw-8">
          <mxGeometry x="0.1333" relative="1" as="geometry">
            <mxPoint x="20" y="-4" as="offset" />
          </mxGeometry>
        </mxCell>
        <mxCell id="ZVZxzonYXC_XQn4FU5jw-11" value="Hayır" style="edgeStyle=orthogonalEdgeStyle;rounded=0;orthogonalLoop=1;jettySize=auto;html=1;exitX=1;exitY=0.5;exitDx=0;exitDy=0;entryX=0;entryY=0.5;entryDx=0;entryDy=0;strokeColor=#000000;" edge="1" parent="1" source="ZVZxzonYXC_XQn4FU5jw-4" target="ZVZxzonYXC_XQn4FU5jw-10">
          <mxGeometry y="20" relative="1" as="geometry">
            <mxPoint as="offset" />
          </mxGeometry>
        </mxCell>
        <mxCell id="ZVZxzonYXC_XQn4FU5jw-4" value="İşlem" style="rhombus;whiteSpace=wrap;html=1;" vertex="1" parent="1">
          <mxGeometry x="320" y="230" width="80" height="80" as="geometry" />
        </mxCell>
        <mxCell id="ZVZxzonYXC_XQn4FU5jw-16" style="edgeStyle=orthogonalEdgeStyle;rounded=0;orthogonalLoop=1;jettySize=auto;html=1;exitX=0.25;exitY=1;exitDx=0;exitDy=0;entryX=0.5;entryY=0;entryDx=0;entryDy=0;strokeColor=#000000;" edge="1" parent="1" source="ZVZxzonYXC_XQn4FU5jw-7" target="ZVZxzonYXC_XQn4FU5jw-15">
          <mxGeometry relative="1" as="geometry" />
        </mxCell>
        <mxCell id="ZVZxzonYXC_XQn4FU5jw-17" style="edgeStyle=orthogonalEdgeStyle;rounded=0;orthogonalLoop=1;jettySize=auto;html=1;exitX=0.5;exitY=1;exitDx=0;exitDy=0;entryX=0.5;entryY=0;entryDx=0;entryDy=0;strokeColor=#000000;" edge="1" parent="1" source="ZVZxzonYXC_XQn4FU5jw-7" target="ZVZxzonYXC_XQn4FU5jw-14">
          <mxGeometry relative="1" as="geometry" />
        </mxCell>
        <mxCell id="ZVZxzonYXC_XQn4FU5jw-18" style="edgeStyle=orthogonalEdgeStyle;rounded=0;orthogonalLoop=1;jettySize=auto;html=1;exitX=0.75;exitY=1;exitDx=0;exitDy=0;entryX=0.5;entryY=0;entryDx=0;entryDy=0;strokeColor=#000000;" edge="1" parent="1" source="ZVZxzonYXC_XQn4FU5jw-7" target="ZVZxzonYXC_XQn4FU5jw-13">
          <mxGeometry relative="1" as="geometry" />
        </mxCell>
        <mxCell id="ZVZxzonYXC_XQn4FU5jw-7" value="" style="whiteSpace=wrap;html=1;rounded=0;shadow=0;comic=0;labelBackgroundColor=none;strokeWidth=1;fontFamily=Verdana;fontSize=12;align=center;rotation=0;fillColor=#000000;" vertex="1" parent="1">
          <mxGeometry x="286.5" y="370" width="147" height="10" as="geometry" />
        </mxCell>
        <mxCell id="ZVZxzonYXC_XQn4FU5jw-12" style="edgeStyle=orthogonalEdgeStyle;rounded=0;orthogonalLoop=1;jettySize=auto;html=1;entryX=1;entryY=0.5;entryDx=0;entryDy=0;strokeColor=#000000;" edge="1" parent="1" source="ZVZxzonYXC_XQn4FU5jw-10" target="ZVZxzonYXC_XQn4FU5jw-1">
          <mxGeometry relative="1" as="geometry">
            <Array as="points">
              <mxPoint x="530" y="150" />
            </Array>
          </mxGeometry>
        </mxCell>
        <mxCell id="ZVZxzonYXC_XQn4FU5jw-10" value="Kitap Listesini Aç" style="rounded=1;whiteSpace=wrap;html=1;" vertex="1" parent="1">
          <mxGeometry x="480" y="250" width="100" height="40" as="geometry" />
        </mxCell>
        <mxCell id="ZVZxzonYXC_XQn4FU5jw-31" style="edgeStyle=orthogonalEdgeStyle;rounded=0;orthogonalLoop=1;jettySize=auto;html=1;exitX=0.5;exitY=1;exitDx=0;exitDy=0;entryX=0.5;entryY=0;entryDx=0;entryDy=0;strokeColor=#000000;" edge="1" parent="1" source="ZVZxzonYXC_XQn4FU5jw-13" target="ZVZxzonYXC_XQn4FU5jw-30">
          <mxGeometry relative="1" as="geometry" />
        </mxCell>
        <mxCell id="ZVZxzonYXC_XQn4FU5jw-13" value="Kitap Eklel" style="rounded=1;whiteSpace=wrap;html=1;" vertex="1" parent="1">
          <mxGeometry x="440" y="430" width="100" height="40" as="geometry" />
        </mxCell>
        <mxCell id="ZVZxzonYXC_XQn4FU5jw-25" style="edgeStyle=orthogonalEdgeStyle;rounded=0;orthogonalLoop=1;jettySize=auto;html=1;exitX=0.5;exitY=1;exitDx=0;exitDy=0;entryX=0.5;entryY=0;entryDx=0;entryDy=0;strokeColor=#000000;" edge="1" parent="1" source="ZVZxzonYXC_XQn4FU5jw-14" target="ZVZxzonYXC_XQn4FU5jw-21">
          <mxGeometry relative="1" as="geometry" />
        </mxCell>
        <mxCell id="ZVZxzonYXC_XQn4FU5jw-14" value="Kitap Sil" style="rounded=1;whiteSpace=wrap;html=1;" vertex="1" parent="1">
          <mxGeometry x="325" y="430" width="100" height="40" as="geometry" />
        </mxCell>
        <mxCell id="ZVZxzonYXC_XQn4FU5jw-26" style="edgeStyle=orthogonalEdgeStyle;rounded=0;orthogonalLoop=1;jettySize=auto;html=1;exitX=0.5;exitY=1;exitDx=0;exitDy=0;entryX=0.25;entryY=0;entryDx=0;entryDy=0;strokeColor=#000000;" edge="1" parent="1" source="ZVZxzonYXC_XQn4FU5jw-15" target="ZVZxzonYXC_XQn4FU5jw-21">
          <mxGeometry relative="1" as="geometry" />
        </mxCell>
        <mxCell id="ZVZxzonYXC_XQn4FU5jw-15" value="Kitap Düzenle" style="rounded=1;whiteSpace=wrap;html=1;" vertex="1" parent="1">
          <mxGeometry x="210" y="430" width="100" height="40" as="geometry" />
        </mxCell>
        <mxCell id="ZVZxzonYXC_XQn4FU5jw-28" style="edgeStyle=orthogonalEdgeStyle;rounded=0;orthogonalLoop=1;jettySize=auto;html=1;exitX=0.5;exitY=1;exitDx=0;exitDy=0;entryX=0.5;entryY=0;entryDx=0;entryDy=0;strokeColor=#000000;" edge="1" parent="1" source="ZVZxzonYXC_XQn4FU5jw-21" target="ZVZxzonYXC_XQn4FU5jw-27">
          <mxGeometry relative="1" as="geometry" />
        </mxCell>
        <mxCell id="ZVZxzonYXC_XQn4FU5jw-21" value="" style="whiteSpace=wrap;html=1;rounded=0;shadow=0;comic=0;labelBackgroundColor=none;strokeWidth=1;fontFamily=Verdana;fontSize=12;align=center;rotation=0;fillColor=#000000;" vertex="1" parent="1">
          <mxGeometry x="270" y="600" width="100" height="10" as="geometry" />
        </mxCell>
        <mxCell id="ZVZxzonYXC_XQn4FU5jw-35" style="edgeStyle=orthogonalEdgeStyle;rounded=0;orthogonalLoop=1;jettySize=auto;html=1;entryX=0;entryY=0.5;entryDx=0;entryDy=0;strokeColor=#000000;" edge="1" parent="1" source="ZVZxzonYXC_XQn4FU5jw-27" target="ZVZxzonYXC_XQn4FU5jw-34">
          <mxGeometry relative="1" as="geometry" />
        </mxCell>
        <mxCell id="ZVZxzonYXC_XQn4FU5jw-27" value="Kitap Listesini Aç" style="rounded=1;whiteSpace=wrap;html=1;" vertex="1" parent="1">
          <mxGeometry x="270" y="650" width="100" height="40" as="geometry" />
        </mxCell>
        <mxCell id="ZVZxzonYXC_XQn4FU5jw-33" style="edgeStyle=orthogonalEdgeStyle;rounded=0;orthogonalLoop=1;jettySize=auto;html=1;entryX=0.75;entryY=0;entryDx=0;entryDy=0;strokeColor=#000000;" edge="1" parent="1" source="ZVZxzonYXC_XQn4FU5jw-30" target="ZVZxzonYXC_XQn4FU5jw-21">
          <mxGeometry relative="1" as="geometry">
            <Array as="points">
              <mxPoint x="490" y="570" />
              <mxPoint x="345" y="570" />
            </Array>
          </mxGeometry>
        </mxCell>
        <mxCell id="ZVZxzonYXC_XQn4FU5jw-30" value="Bilgileri Gir" style="rounded=1;whiteSpace=wrap;html=1;" vertex="1" parent="1">
          <mxGeometry x="440" y="520" width="100" height="40" as="geometry" />
        </mxCell>
        <mxCell id="ZVZxzonYXC_XQn4FU5jw-37" style="edgeStyle=orthogonalEdgeStyle;rounded=0;orthogonalLoop=1;jettySize=auto;html=1;exitX=0.5;exitY=1;exitDx=0;exitDy=0;entryX=0.5;entryY=0;entryDx=0;entryDy=0;strokeColor=#000000;" edge="1" parent="1" source="ZVZxzonYXC_XQn4FU5jw-34" target="ZVZxzonYXC_XQn4FU5jw-36">
          <mxGeometry relative="1" as="geometry" />
        </mxCell>
        <mxCell id="ZVZxzonYXC_XQn4FU5jw-34" value="Kitapları&lt;br&gt;Görüntüle" style="rounded=1;whiteSpace=wrap;html=1;" vertex="1" parent="1">
          <mxGeometry x="480" y="640" width="120" height="60" as="geometry" />
        </mxCell>
        <mxCell id="ZVZxzonYXC_XQn4FU5jw-36" value="" style="ellipse;whiteSpace=wrap;html=1;rounded=0;shadow=0;comic=0;labelBackgroundColor=none;strokeWidth=1;fillColor=#000000;fontFamily=Verdana;fontSize=12;align=center;" vertex="1" parent="1">
          <mxGeometry x="520" y="750" width="40" height="40" as="geometry" />
        </mxCell>
      </root>
    </mxGraphModel>
  </diagram>
</mxfile>
